<?xml version="1.0" encoding="UTF-8"?>
<svg id="Capa_1" xmlns="http://www.w3.org/2000/svg" version="1.1" viewBox="0 0 1200 1200">
  <!-- Generator: Adobe Illustrator 29.0.0, SVG Export Plug-In . SVG Version: 2.1.0 Build 186)  -->
  <defs>
    <style>
      .st0 {
        display: none;
        fill: #1d1d1b;
        stroke: #1d1d1b;
      }

      .st0, .st1, .st2 {
        fill-rule: evenodd;
      }

      .st0, .st2 {
        stroke-miterlimit: 22.9;
        stroke-width: .6px;
      }

      .st1, .st2 {
        fill: #e0e0e0;
      }

      .st2 {
        stroke: #fff;
      }
    </style>
  </defs>
  <polygon class="st0" points="101.3 174.3 1096.9 174.3 1096.9 1026.3 101.3 1026.3 101.3 174.3 101.3 174.3"/>
  <polygon class="st1" points="363.4 508.9 395.1 508.9 395.1 616.1 363.4 616.1 363.4 508.9 363.4 508.9"/>
  <path class="st1" d="M206.6,594v-60.1c-.1-10.9-9.2-10.9-22.3-10.1l.6-13.8h83.3c36,1.4,67.2,12.3,71.1,51.7.4,29.2-25.5,48.8-71.1,50.4h-82.8v-7.9c9.1,0,20.9-.9,21.2-10.2h0Z"/>
  <polygon class="st1" points="409.1 508.9 462.2 508.9 514.2 588.8 517.3 588.8 516.5 508.9 547.4 508.9 547.4 616.1 494.8 616.1 442.5 536.1 439.2 536.1 439.8 616.1 409.1 616.1 409.1 508.9 409.1 508.9"/>
  <path class="st1" d="M671.4,616.1l-8.5-18.2h-65.7l-8.5,18.2h-34.6l52.7-107.2h46.9l52,107.2h-34.4ZM652.3,574.4l-19.1-40.6h-6.1l-19.1,40.6h44.3Z"/>
  <polygon class="st1" points="710.3 508.9 765.1 508.9 794.6 578.5 824.3 508.9 878.8 508.9 878.8 616.1 849 616.1 849.6 535.8 844.7 535.8 807.3 616.1 782.1 616.1 744.7 535.8 739.3 535.8 740.1 616.1 710.3 616.1 710.3 508.9 710.3 508.9"/>
  <path class="st1" d="M958.8,507.3c21.5,0,36.2.5,44.2,1.6,11.6,1.8,18.8,7.7,21.3,17.9,1.8,7.1,2.7,19,2.7,35.6,0,16.9-.9,28.8-2.7,35.7-2.5,10.3-9.7,16.3-21.3,17.9-8,1.1-22.6,1.8-43.9,1.8s-36.5-.6-44.5-1.8c-11.6-1.6-18.6-7.6-21.3-17.9-1.8-6.9-2.7-19.2-2.7-36.2,0-16.4.9-28.2,2.7-35.1,2.7-10.1,9.7-16.1,21.3-17.9,8.1-1.1,22.8-1.6,44.2-1.6h0ZM958.9,535.2c-16.1,0-25.8.5-29.1,1.3-3.7,1.1-6.1,3.4-7.3,7.1-1.2,3.7-1.8,10.9-1.8,21.7,0,6.6.3,11.3,1,14.2,1.2,5.5,4.8,8.7,10.9,9.5,4.6.5,13.3.8,26.4.8s20.3-.2,24.3-.6c4-.5,7-1.4,8.9-3.2,1.8-1.3,3-3.5,3.6-6.4.6-2.9.9-7.4.9-14s-.3-13.4-.7-16.9c-.4-3.7-1.3-6.4-2.5-8.2-1.6-2.4-4.3-3.7-8-4.3-3.6-.5-12.5-.8-26.5-.8h0Z"/>
  <path class="st2" d="M453.8,485.7v-81.2c2.2-26.4-19-31.5-51.4-32-11.2-.2-24.1,1.1-37.4,1v-15.5l339.1.2c117,4.6,221.7,33.7,267,127.3,0,0,0,0,0,0l-517.3.2h0Z"/>
  <path class="st2" d="M604.9,283.5c254.5,0,460.8,126.1,460.8,281.8s-206.3,281.8-460.8,281.8-460.8-126.1-460.8-281.8,206.3-281.8,460.8-281.8h0ZM604.9,298.3c246.9,0,447.1,119.5,447.1,266.9s-200.2,266.9-447.1,266.9-447.1-119.5-447.1-266.9,200.2-266.9,447.1-266.9h0Z"/>
  <path class="st2" d="M453.8,725.7v-71.6h518.8c-39,70.4-132.1,114.8-268.5,119.5h-336.7l-.4-16.5c20.6,0,44.1,1.2,61.6-3.4,14.3-3.7,24.6-11.1,25.3-28.1h0Z"/>
</svg>